<?xml version="1.0" standalone="no"?>
<!DOCTYPE svg PUBLIC "-//W3C//DTD SVG 20010904//EN"
 "http://www.w3.org/TR/2001/REC-SVG-20010904/DTD/svg10.dtd">
<svg version="1.0" xmlns="http://www.w3.org/2000/svg"
 width="422.000000pt" height="422.000000pt" viewBox="0 0 422.000000 422.000000"
 preserveAspectRatio="xMidYMid meet">
<metadata>
Created by potrace 1.14, written by Peter Selinger 2001-2017
</metadata>
<g transform="translate(0.000000,422.000000) scale(0.100000,-0.100000)"
fill="#000000" stroke="none">
<path d="M1718 3921 c-59 -7 -106 -16 -104 -20 2 -3 -8 -6 -22 -7 -15 0 -38
-3 -52 -7 -14 -3 -36 -8 -50 -11 -14 -3 -26 -10 -28 -16 -2 -6 -7 -8 -11 -6
-13 8 -91 -19 -201 -70 -58 -27 -107 -51 -110 -54 -3 -3 -23 -14 -45 -25 -22
-11 -47 -28 -57 -37 -10 -10 -20 -18 -23 -18 -17 -1 -34 -13 -29 -21 3 -5 -2
-6 -10 -3 -9 3 -16 1 -16 -5 0 -6 -7 -11 -15 -11 -8 0 -19 -9 -25 -20 -6 -11
-16 -19 -23 -17 -7 1 -11 -6 -11 -15 1 -10 -4 -14 -13 -11 -8 3 -22 -2 -31
-11 -9 -9 -42 -37 -72 -62 -30 -25 -54 -50 -52 -56 1 -5 -1 -7 -6 -4 -12 7
-64 -48 -55 -59 5 -4 3 -5 -3 -2 -14 8 -37 -17 -26 -28 4 -5 2 -5 -4 -2 -17
10 -211 -203 -197 -217 3 -3 1 -6 -5 -6 -11 0 -122 -148 -122 -163 0 -4 -8
-16 -17 -26 -38 -41 -149 -285 -158 -346 -1 -11 -5 -27 -8 -35 -13 -37 -29
-121 -24 -134 3 -7 2 -17 -3 -22 -31 -31 -34 -328 -5 -514 2 -14 4 -25 5 -25
1 0 3 -13 5 -30 9 -74 18 -115 27 -115 5 0 7 -4 4 -9 -7 -10 25 -124 37 -132
5 -3 8 -10 8 -15 -2 -36 41 -138 54 -126 5 4 5 1 1 -6 -12 -21 84 -219 104
-214 6 1 9 -2 5 -7 -3 -6 2 -25 12 -43 16 -31 18 -67 16 -418 -1 -212 -2 -388
-2 -392 -1 -5 -82 -8 -181 -8 -113 0 -180 -4 -180 -10 0 -5 3 -10 8 -10 15 -1
1684 -9 1832 -9 132 0 2153 7 2323 9 36 0 56 4 52 10 -4 6 -129 10 -341 10
-323 0 -334 1 -325 19 6 10 13 31 16 47 2 16 47 205 98 421 61 257 90 397 85
408 -8 12 -34 15 -164 15 l-154 0 25 40 c14 23 23 46 19 53 -4 7 -4 9 1 5 9
-8 49 68 91 172 15 36 32 79 39 95 7 17 16 46 20 65 4 19 11 40 15 45 5 6 79
10 187 9 98 -1 184 1 191 4 6 2 12 19 12 38 l0 34 -179 0 c-144 0 -180 3 -184
14 -7 18 1 26 29 26 14 0 25 8 29 20 8 26 -3 60 -20 60 -7 0 -15 9 -18 20 -3
11 -1 20 3 20 5 0 9 8 9 18 0 24 10 177 12 177 8 0 5 42 -4 47 -8 5 -8 8 -1 8
7 0 10 30 8 93 -6 147 -22 277 -36 277 -5 0 -7 4 -4 9 19 30 -114 428 -137
414 -6 -3 -7 -1 -3 6 10 16 -42 123 -56 115 -7 -4 -8 -3 -4 4 6 10 -17 58 -35
72 -3 3 -8 10 -10 15 -13 34 -86 124 -97 120 -7 -3 -10 0 -7 5 8 14 -115 141
-128 133 -6 -3 -7 -2 -4 4 6 10 -26 43 -43 43 -6 0 -10 4 -10 9 0 10 -136 111
-150 111 -6 0 -10 5 -10 10 0 6 -6 10 -14 10 -7 0 -19 7 -26 15 -7 8 -16 12
-21 9 -5 -3 -9 -1 -9 4 0 9 -127 76 -145 77 -5 0 -16 6 -24 13 -7 7 -20 11
-28 8 -8 -3 -12 -2 -9 2 7 12 -61 35 -75 26 -7 -4 -9 -3 -6 4 8 11 -114 52
-228 76 -38 8 -77 17 -85 20 -20 6 -78 14 -165 22 -38 3 -76 8 -84 10 -7 2
-21 -1 -29 -8 -12 -10 -14 -10 -8 0 10 16 -155 13 -306 -7z m-147 -98 c13 -16
12 -17 -3 -4 -10 7 -18 15 -18 17 0 8 8 3 21 -13z m353 -9 c3 -8 2 -12 -4 -9
-6 3 -10 10 -10 16 0 14 7 11 14 -7z m-157 -69 c0 -8 -4 -12 -9 -9 -5 3 -6 10
-3 15 9 13 12 11 12 -6z m-387 -279 c0 -2 -8 -10 -17 -17 -16 -13 -17 -12 -4
4 13 16 21 21 21 13z m1191 -83 c13 -16 12 -17 -3 -4 -10 7 -18 15 -18 17 0 8
8 3 21 -13z m-1311 -197 c0 -2 -8 -10 -17 -17 -16 -13 -17 -12 -4 4 13 16 21
21 21 13z m1440 0 c0 -2 -8 -10 -17 -17 -16 -13 -17 -12 -4 4 13 16 21 21 21
13z m106 -252 c1 -9 0 -13 -4 -10 -3 4 -7 14 -8 22 -1 9 0 13 4 10 3 -4 7 -14
8 -22z m-2445 -1 c13 -16 12 -17 -3 -4 -17 13 -22 21 -14 21 2 0 10 -8 17 -17z
m520 -120 c13 -16 12 -17 -3 -4 -10 7 -18 15 -18 17 0 8 8 3 21 -13z m2447
-38 c-3 -3 -9 2 -12 12 -6 14 -5 15 5 6 7 -7 10 -15 7 -18z m-2523 6 c3 -5 2
-12 -3 -15 -5 -3 -9 1 -9 9 0 17 3 19 12 6z m520 0 c3 -5 2 -12 -3 -15 -5 -3
-9 1 -9 9 0 17 3 19 12 6z m1645 -25 c0 -2 -8 -10 -17 -17 -16 -13 -17 -12 -4
4 13 16 21 21 21 13z m-2310 -50 c0 -2 -8 -10 -17 -17 -16 -13 -17 -12 -4 4
13 16 21 21 21 13z m2347 -91 c0 -8 -4 -12 -9 -9 -5 3 -6 10 -3 15 9 13 12 11
12 -6z m-2437 -19 c0 -2 -8 -10 -17 -17 -16 -13 -17 -12 -4 4 13 16 21 21 21
13z m677 -141 c0 -8 -4 -12 -9 -9 -5 3 -6 10 -3 15 9 13 12 11 12 -6z m1800 0
c0 -8 -4 -12 -9 -9 -5 3 -6 10 -3 15 9 13 12 11 12 -6z m-2877 -309 c0 -3 -4
-8 -10 -11 -5 -3 -10 -1 -10 4 0 6 5 11 10 11 6 0 10 -2 10 -4z m650 -2 c0 -8
-19 -13 -24 -6 -3 5 1 9 9 9 8 0 15 -2 15 -3z m1981 -131 c13 -16 12 -17 -3
-4 -17 13 -22 21 -14 21 2 0 10 -8 17 -17z m-2595 -39 c1 -9 0 -13 -4 -10 -3
4 -7 14 -8 22 -1 9 0 13 4 10 3 -4 7 -14 8 -22z m795 -7 c-10 -9 -11 -8 -5 6
3 10 9 15 12 12 3 -3 0 -11 -7 -18z m99 19 c0 -2 -8 -10 -17 -17 -16 -13 -17
-12 -4 4 13 16 21 21 21 13z m1861 -13 c13 -16 12 -17 -3 -4 -10 7 -18 15 -18
17 0 8 8 3 21 -13z m-221 -149 c0 -8 -19 -13 -24 -6 -3 5 1 9 9 9 8 0 15 -2
15 -3z m-160 -40 c0 -8 -19 -13 -24 -6 -3 5 1 9 9 9 8 0 15 -2 15 -3z m-16
-82 c3 -5 -1 -9 -9 -9 -8 0 -12 4 -9 9 3 4 7 8 9 8 2 0 6 -4 9 -8z m-2354
-106 c0 -2 -8 -10 -17 -17 -16 -13 -17 -12 -4 4 13 16 21 21 21 13z m2555
-165 c3 -5 2 -12 -3 -15 -5 -3 -9 1 -9 9 0 17 3 19 12 6z"/>
<path d="M4059 1783 c-3 -20 3 -59 11 -66 4 -5 17 -4 28 2 32 17 23 65 -12 69
-14 2 -26 0 -27 -5z"/>
<path d="M3661 1672 c-6 -2 -11 -19 -11 -38 l0 -34 68 -1 c126 -2 266 2 274 7
13 8 9 64 -4 65 -33 3 -318 4 -327 1z"/>
</g>
</svg>
